<?xml version="1.0" standalone="no"?>
<!DOCTYPE svg PUBLIC "-//W3C//DTD SVG 20010904//EN"
 "http://www.w3.org/TR/2001/REC-SVG-20010904/DTD/svg10.dtd">
<svg version="1.0" xmlns="http://www.w3.org/2000/svg"
 width="261.000000pt" height="261.000000pt" viewBox="0 0 261.000000 261.000000"
 preserveAspectRatio="xMidYMid meet">
<metadata>
Created by potrace 1.11, written by Peter Selinger 2001-2013
</metadata>
<g transform="translate(0.000000,261.000000) scale(0.100000,-0.100000)"
fill="#000000" stroke="none">
<path d="M1111 2510 c-152 -21 -297 -67 -414 -131 -104 -56 -110 -93 -38 -219
129 -226 274 -476 282 -485 17 -17 9 -38 -67 -169 -206 -354 -266 -463 -271
-491 -3 -17 2 -48 11 -68 27 -65 39 -67 434 -67 l349 0 148 -256 c84 -145 144
-259 139 -264 -17 -17 -162 -60 -255 -76 -452 -79 -935 184 -1110 604 -60 145
-81 251 -82 407 0 93 5 164 16 211 20 90 69 224 102 279 47 81 22 159 -56 171
-28 5 -41 1 -66 -20 -55 -46 -133 -228 -169 -398 -25 -115 -25 -361 0 -476 96
-445 402 -787 828 -926 308 -100 702 -61 972 98 47 27 69 68 58 108 -3 12 -77
146 -164 296 -87 151 -158 276 -158 278 0 2 8 4 18 4 30 1 98 37 140 75 54 48
76 106 70 185 -4 52 -2 61 15 66 35 11 100 79 123 129 45 95 25 222 -46 296
l-37 39 -375 0 -375 0 -11 23 c-6 12 -24 45 -40 72 -16 28 -38 66 -49 85 -11
19 -61 105 -111 190 -72 124 -87 157 -76 163 35 20 166 59 243 72 614 108
1185 -353 1206 -975 6 -177 -25 -330 -100 -487 -60 -127 -59 -165 6 -199 37
-19 78 -11 107 19 30 31 95 176 126 277 55 182 67 407 31 584 -99 480 -468
855 -940 957 -104 22 -320 32 -414 19z m697 -1018 c4 -45 -20 -79 -65 -91 -23
-7 -170 -11 -371 -11 l-333 0 17 33 c9 17 28 49 41 70 l23 37 343 -2 342 -3 3
-33z m-160 -323 c2 -29 -2 -39 -22 -53 -49 -31 -117 -36 -443 -34 l-321 3 35
63 35 62 356 -2 357 -3 3 -36z"/>
</g>
</svg>
